<svg viewBox="0 0 1200 675" xmlns="http://www.w3.org/2000/svg" role="img" aria-label="AI Agent보다 운영을 먼저 묻는 금융권">
  <defs><linearGradient id="bg" x1="0" y1="0" x2="1" y2="1"><stop offset="0" stop-color="#fbfcfd"/><stop offset="1" stop-color="#e8eaef"/></linearGradient><linearGradient id="brand" x1="0" y1="0" x2="1" y2="1"><stop offset="0" stop-color="#8b5cf6"/><stop offset="1" stop-color="#a78bfa"/></linearGradient><radialGradient id="glow" cx="50%" cy="50%" r="50%"><stop offset="0" stop-color="#a78bfa" stop-opacity="0.10"/><stop offset="1" stop-color="#a78bfa" stop-opacity="0"/></radialGradient></defs>
  <rect width="1200" height="675" fill="url(#bg)"/><circle cx="600" cy="486" r="330" fill="url(#glow)"/>
  <text x="600" y="170" text-anchor="middle" font-family="Pretendard,'Pretendard Variable','Malgun Gothic','Apple SD Gothic Neo','Noto Sans KR',sans-serif" font-size="92" font-weight="800" fill="#111827">AI Agent보다</text>
  <text x="600" y="276" text-anchor="middle" font-family="Pretendard,'Pretendard Variable','Malgun Gothic','Apple SD Gothic Neo','Noto Sans KR',sans-serif" font-size="92" font-weight="800" fill="#7c3aed">운영을 먼저</text>
  <g>
    <rect x="88" y="400" width="220" height="110" rx="26" fill="#ffffff" stroke="#e3e6eb" stroke-width="2"/><rect x="356" y="400" width="220" height="110" rx="26" fill="#ffffff" stroke="#e3e6eb" stroke-width="2"/><rect x="624" y="400" width="220" height="110" rx="26" fill="#ffffff" stroke="#e3e6eb" stroke-width="2"/><rect x="892" y="400" width="220" height="110" rx="26" fill="url(#brand)"/>
  </g>
  <g text-anchor="middle" font-family="Pretendard,'Pretendard Variable','Malgun Gothic','Apple SD Gothic Neo','Noto Sans KR',sans-serif" font-size="27" font-weight="700"><text x="198" y="466" fill="#374151">문서</text><text x="466" y="466" fill="#374151">연결</text><text x="734" y="466" fill="#6d28d9">실행</text><text x="1002" y="466" fill="#ffffff">통제</text></g>
  <g stroke="#a78bfa" stroke-width="4" stroke-linecap="round" fill="none"><path d="M318 455 h28"/><path d="M336 447 l8 8 -8 8"/><path d="M586 455 h28"/><path d="M604 447 l8 8 -8 8"/><path d="M854 455 h28"/><path d="M872 447 l8 8 -8 8"/></g>
  <text x="600" y="596" text-anchor="middle" font-family="Pretendard,'Pretendard Variable','Malgun Gothic','Apple SD Gothic Neo','Noto Sans KR',sans-serif" font-size="26" font-weight="700" fill="#7c3aed">On-Premise · Permission · Audit · Governance</text>
</svg>
