<svg viewBox="0 0 1200 630" xmlns="http://www.w3.org/2000/svg" role="img" aria-label="Kubernetes 3노드 클러스터에서 공유 스토리지를 통해 워크로드가 복구되는 흐름">
  <defs><linearGradient id="bg" x1="0" y1="0" x2="1" y2="1"><stop stop-color="#f8fbff"/><stop offset="1" stop-color="#eef5ff"/></linearGradient><linearGradient id="a" x1="0" y1="0" x2="1" y2="1"><stop stop-color="#326ce5"/><stop offset="1" stop-color="#6657d9"/></linearGradient><filter id="s" x="-20%" y="-20%" width="140%" height="150%"><feDropShadow dy="12" stdDeviation="18" flood-color="#29436b" flood-opacity=".13"/></filter></defs>
  <rect width="1200" height="630" fill="url(#bg)"/><circle cx="1110" cy="40" r="220" fill="#326ce5" opacity=".06"/><circle cx="70" cy="620" r="180" fill="#6657d9" opacity=".05"/>
  <text x="76" y="90" font-family="Pretendard,'Malgun Gothic',sans-serif" font-size="22" font-weight="750" letter-spacing="3" fill="#3264bf">TECH NOTE · KUBERNETES HA</text>
  <text x="76" y="177" font-family="Pretendard,'Malgun Gothic',sans-serif" font-size="52" font-weight="800" fill="#17213b">노드가 살아 있는 것과</text><text x="76" y="243" font-family="Pretendard,'Malgun Gothic',sans-serif" font-size="52" font-weight="800" fill="#3264bf">서비스가 복구되는 것은 다릅니다</text>
  <text x="78" y="300" font-family="Pretendard,'Malgun Gothic',sans-serif" font-size="21" font-weight="650" fill="#64748b">3노드 정족수 · 공유 스토리지 · Failover 검증</text>
  <g filter="url(#s)" font-family="Pretendard,'Malgun Gothic',sans-serif"><rect x="684" y="340" width="430" height="190" rx="26" fill="#fff"/><g fill="#fff" stroke="url(#a)" stroke-width="5"><circle cx="760" cy="412" r="38"/><circle cx="900" cy="412" r="38"/><circle cx="1040" cy="412" r="38"/></g><g fill="#3264bf" font-size="17" font-weight="800" text-anchor="middle"><text x="760" y="418">NODE 1</text><text x="900" y="418">NODE 2</text><text x="1040" y="418">NODE 3</text></g><path d="M760 466v22h280v-22M900 450v38" fill="none" stroke="#9aabd0" stroke-width="4" stroke-linecap="round"/><rect x="833" y="480" width="134" height="36" rx="18" fill="url(#a)"/><text x="900" y="504" fill="#fff" font-size="15" font-weight="800" text-anchor="middle">SHARED DATA</text></g>
</svg>
