<svg viewBox="0 0 1200 630" xmlns="http://www.w3.org/2000/svg" role="img" aria-label="LLM 인사이드 5편, 에이전트와 도구와 실행 환경">
  <defs>
    <linearGradient id="bg" x1="0" y1="0" x2="1" y2="1"><stop offset="0" stop-color="#f8f8ff"/><stop offset="1" stop-color="#eef0fb"/></linearGradient>
    <linearGradient id="accent" x1="0" y1="0" x2="1" y2="1"><stop offset="0" stop-color="#6753c7"/><stop offset="1" stop-color="#355fae"/></linearGradient>
    <filter id="shadow" x="-20%" y="-20%" width="140%" height="140%"><feDropShadow dx="0" dy="16" stdDeviation="22" flood-color="#3b3d78" flood-opacity="0.14"/></filter>
  </defs>
  <rect width="1200" height="630" fill="url(#bg)"/>
  <circle cx="1080" cy="70" r="230" fill="#6753c7" opacity="0.07"/>
  <circle cx="130" cy="600" r="170" fill="#355fae" opacity="0.06"/>
  <text x="86" y="104" font-family="Pretendard,'Pretendard Variable','Malgun Gothic','Apple SD Gothic Neo','Noto Sans KR',sans-serif" font-size="23" font-weight="750" letter-spacing="3" fill="#5745b5">LLM INSIDE · 05</text>
  <text x="86" y="234" font-family="Pretendard,'Pretendard Variable','Malgun Gothic','Apple SD Gothic Neo','Noto Sans KR',sans-serif" font-size="58" font-weight="800" fill="#17213b">LLM은 언제</text>
  <text x="86" y="308" font-family="Pretendard,'Pretendard Variable','Malgun Gothic','Apple SD Gothic Neo','Noto Sans KR',sans-serif" font-size="58" font-weight="800" fill="#5745b5">에이전트가 되는가</text>
  <rect x="86" y="358" width="326" height="52" rx="26" fill="#e4e2f7"/>
  <text x="112" y="392" font-family="Pretendard,'Pretendard Variable','Malgun Gothic','Apple SD Gothic Neo','Noto Sans KR',sans-serif" font-size="22" font-weight="700" fill="#5745b5">모델 · 도구 · 실행 루프</text>

  <g filter="url(#shadow)"><rect x="648" y="126" width="474" height="420" rx="30" fill="#ffffff"/></g>
  <g font-family="ui-monospace,SFMono-Regular,Menlo,monospace" font-size="16" font-weight="800" text-anchor="middle">
    <rect x="806" y="178" width="160" height="62" rx="18" fill="url(#accent)"/><text x="886" y="215" fill="#ffffff">LLM</text>
    <rect x="966" y="306" width="118" height="62" rx="18" fill="#e3e8f6"/><text x="1025" y="343" fill="#40527d">policy</text>
    <rect x="806" y="432" width="160" height="62" rx="18" fill="#dce7f7"/><text x="886" y="469" fill="#355d96">tool</text>
    <rect x="688" y="306" width="142" height="62" rx="18" fill="#e9e7f8"/><text x="759" y="343" fill="#5745b5">observation</text>
  </g>
  <g fill="none" stroke="#9aa9ce" stroke-width="5" stroke-linecap="round" stroke-linejoin="round">
    <path d="M963 217 C1020 231 1042 259 1032 294"/><path d="M1022 282 L1032 296 L1041 281"/>
    <path d="M1026 370 C1017 414 988 441 970 448"/><path d="M982 438 L968 449 L985 454"/>
    <path d="M802 463 C750 449 724 410 725 374"/><path d="M716 388 L725 372 L735 387"/>
    <path d="M751 303 C766 257 801 229 828 219"/><path d="M812 216 L830 218 L817 231"/>
  </g>
  <circle cx="886" cy="337" r="48" fill="#f2f4fb" stroke="#c7d0e8" stroke-width="3"/>
  <path d="M873 337 L883 347 L901 326" fill="none" stroke="#5745b5" stroke-width="7" stroke-linecap="round" stroke-linejoin="round"/>
</svg>
