<svg viewBox="0 0 1200 630" xmlns="http://www.w3.org/2000/svg" role="img" aria-label="LLM Field Notes Part 5, agents, tools, and execution">
  <defs>
    <linearGradient id="bg" x1="0" y1="0" x2="1" y2="1"><stop offset="0" stop-color="#f8f8ff"/><stop offset="1" stop-color="#eef0fb"/></linearGradient>
    <linearGradient id="accent" x1="0" y1="0" x2="1" y2="1"><stop offset="0" stop-color="#6753c7"/><stop offset="1" stop-color="#355fae"/></linearGradient>
    <filter id="shadow" x="-20%" y="-20%" width="140%" height="140%"><feDropShadow dx="0" dy="16" stdDeviation="22" flood-color="#3b3d78" flood-opacity="0.14"/></filter>
  </defs>
  <rect width="1200" height="630" fill="url(#bg)"/><circle cx="1080" cy="70" r="230" fill="#6753c7" opacity="0.07"/><circle cx="130" cy="600" r="170" fill="#355fae" opacity="0.06"/>
  <text x="78" y="100" font-family="Pretendard,'Pretendard Variable',Arial,sans-serif" font-size="23" font-weight="750" letter-spacing="3" fill="#5745b5">LLM FIELD NOTES · 05</text>
  <text x="78" y="221" font-family="Pretendard,'Pretendard Variable',Arial,sans-serif" font-size="49" font-weight="800" fill="#17213b">WHEN DOES AN LLM</text>
  <text x="78" y="284" font-family="Pretendard,'Pretendard Variable',Arial,sans-serif" font-size="49" font-weight="800" fill="#5745b5">BECOME AN AGENT?</text>
  <rect x="78" y="334" width="364" height="50" rx="25" fill="#e4e2f7"/><text x="102" y="366" font-family="Pretendard,'Pretendard Variable',Arial,sans-serif" font-size="19" font-weight="700" fill="#5745b5">MODEL · TOOLS · EXECUTION LOOP</text>
  <g filter="url(#shadow)"><rect x="648" y="108" width="474" height="418" rx="30" fill="#ffffff"/></g>
  <g font-family="ui-monospace,SFMono-Regular,Menlo,monospace" font-size="16" font-weight="800" text-anchor="middle">
    <rect x="806" y="160" width="160" height="62" rx="18" fill="url(#accent)"/><text x="886" y="197" fill="#ffffff">LLM</text><rect x="966" y="288" width="118" height="62" rx="18" fill="#e3e8f6"/><text x="1025" y="325" fill="#40527d">policy</text><rect x="806" y="414" width="160" height="62" rx="18" fill="#dce7f7"/><text x="886" y="451" fill="#355d96">tool</text><rect x="688" y="288" width="142" height="62" rx="18" fill="#e9e7f8"/><text x="759" y="325" fill="#5745b5">observation</text>
  </g>
  <g fill="none" stroke="#9aa9ce" stroke-width="5" stroke-linecap="round" stroke-linejoin="round"><path d="M963 199 C1020 213 1042 241 1032 276"/><path d="M1022 264 L1032 278 L1041 263"/><path d="M1026 352 C1017 396 988 423 970 430"/><path d="M982 420 L968 431 L985 436"/><path d="M802 445 C750 431 724 392 725 356"/><path d="M716 370 L725 354 L735 369"/><path d="M751 285 C766 239 801 211 828 201"/><path d="M812 198 L830 200 L817 213"/></g>
  <circle cx="886" cy="319" r="48" fill="#f2f4fb" stroke="#c7d0e8" stroke-width="3"/><path d="M873 319 L883 329 L901 308" fill="none" stroke="#5745b5" stroke-width="7" stroke-linecap="round" stroke-linejoin="round"/>
</svg>
