<svg viewBox="0 0 1200 675" xmlns="http://www.w3.org/2000/svg" role="img" aria-label="온톨로지 빌드를 비동기 작업으로">
  <defs>
    <linearGradient id="bg" x1="0" y1="0" x2="1" y2="1"><stop offset="0" stop-color="#f1fdfb"/><stop offset="1" stop-color="#e2f7f2"/></linearGradient>
    <linearGradient id="badge" x1="0" y1="0" x2="1" y2="1"><stop offset="0" stop-color="#14b8a6"/><stop offset="1" stop-color="#0f766e"/></linearGradient>
    <filter id="sh" x="-20%" y="-20%" width="140%" height="140%"><feDropShadow dx="0" dy="14" stdDeviation="22" flood-color="#134e4a" flood-opacity="0.14"/></filter>
  </defs>
  <rect width="1200" height="675" fill="url(#bg)"/>
  <circle cx="1080" cy="90" r="220" fill="#14b8a6" opacity="0.06"/>
  <circle cx="140" cy="620" r="180" fill="#0f766e" opacity="0.05"/>

  <text x="92" y="120" font-family="system-ui,'Segoe UI','Malgun Gothic',sans-serif" font-size="24" font-weight="700" letter-spacing="3" fill="#0d9488">TECH NOTE · 온톨로지 3편</text>
  <rect x="92" y="150" width="96" height="96" rx="24" fill="url(#badge)"/>
  <text x="140" y="212" text-anchor="middle" font-family="system-ui,sans-serif" font-size="38" font-weight="800" fill="#ffffff">O3</text>
  <text x="92" y="330" font-family="system-ui,'Malgun Gothic',sans-serif" font-size="46" font-weight="800" fill="#0f172a">긴 빌드를</text>
  <text x="92" y="388" font-family="system-ui,'Malgun Gothic',sans-serif" font-size="46" font-weight="800" fill="#0f766e">작업으로 다루다</text>
  <rect x="92" y="440" width="320" height="52" rx="26" fill="#ccfbf1"/>
  <text x="118" y="474" font-family="system-ui,'Malgun Gothic',sans-serif" font-size="24" font-weight="700" fill="#0f766e">비동기 작업 · 진행상태</text>

  <g filter="url(#sh)"><rect x="628" y="150" width="484" height="392" rx="28" fill="#ffffff"/></g>
  <rect x="700" y="228" width="340" height="236" rx="20" fill="#f0fdfa" stroke="#99f6e4" stroke-width="2"/>
  <circle cx="742" cy="278" r="16" fill="#14b8a6"/>
  <path d="M742 278 v-9 M742 278 l7 4" stroke="#ffffff" stroke-width="3" stroke-linecap="round"/>
  <text x="772" y="286" font-family="system-ui,'Malgun Gothic',sans-serif" font-size="22" font-weight="800" fill="#0f766e">빌드 작업</text>
  <rect x="732" y="330" width="276" height="20" rx="10" fill="#cbeee7"/>
  <rect x="732" y="330" width="172" height="20" rx="10" fill="#0d9488"/>
  <text x="732" y="394" font-family="ui-monospace,monospace" font-size="20" font-weight="700" fill="#0f766e">running · 62%</text>
  <rect x="898" y="378" width="110" height="36" rx="18" fill="#ccfbf1"/>
  <text x="953" y="403" text-anchor="middle" font-family="system-ui,'Malgun Gothic',sans-serif" font-size="17" font-weight="800" fill="#0f766e">비동기</text>
</svg>
