<svg viewBox="0 0 1200 675" xmlns="http://www.w3.org/2000/svg" role="img" aria-label="XGEN DeX — 서버에서 실행되는 Agent 를 내 데스크톱까지 잇는다">
  <defs>
    <linearGradient id="bg" x1="0" y1="0" x2="1" y2="1"><stop offset="0" stop-color="#3d7bf2"/><stop offset="1" stop-color="#639bfb"/></linearGradient>
    <linearGradient id="badge" x1="0" y1="0" x2="1" y2="1"><stop offset="0" stop-color="#ffffff"/><stop offset="1" stop-color="#cfe0fd"/></linearGradient>
    <radialGradient id="glow" cx="50%" cy="50%" r="50%"><stop offset="0" stop-color="#ffffff" stop-opacity="0.34"/><stop offset="1" stop-color="#ffffff" stop-opacity="0"/></radialGradient>
  </defs>
  <rect width="1200" height="675" fill="url(#bg)"/>
  <circle cx="936" cy="330" r="330" fill="url(#glow)"/>
  <text x="88" y="302" font-family="Pretendard,'Pretendard Variable','Malgun Gothic','Apple SD Gothic Neo','Noto Sans KR',sans-serif" font-size="92" font-weight="800" fill="#ffffff">서버의 AI를</text>
  <text x="88" y="416" font-family="Pretendard,'Pretendard Variable','Malgun Gothic','Apple SD Gothic Neo','Noto Sans KR',sans-serif" font-size="92" font-weight="800" fill="#e4eeff">내 PC까지</text>

  <rect x="684" y="214" width="216" height="152" rx="22" fill="#ffffff2e" stroke="#ffffff8c" stroke-width="2"/>
  <rect x="716" y="248" width="152" height="80" rx="10" fill="#ffffff59"/>
  <rect x="768" y="366" width="48" height="16" rx="8" fill="#ffffff59"/>
  <text x="792" y="424" text-anchor="middle" font-family="Pretendard,'Pretendard Variable','Malgun Gothic','Apple SD Gothic Neo','Noto Sans KR',sans-serif" font-size="28" font-weight="600" fill="#e4eeff">내 데스크톱</text>
  <path d="M916 290 L 972 290" stroke="#e4eeff" stroke-width="8" stroke-linecap="round" stroke-dasharray="12 12"/>
  <rect x="988" y="214" width="168" height="152" rx="22" fill="url(#badge)"/>
  <g fill="#ffffff" opacity="0.9">
    <rect x="1018" y="246" width="108" height="26" rx="8"/><rect x="1018" y="284" width="108" height="26" rx="8"/><rect x="1018" y="322" width="108" height="26" rx="8"/>
  </g>
  <text x="1072" y="424" text-anchor="middle" font-family="Pretendard,'Pretendard Variable','Malgun Gothic','Apple SD Gothic Neo','Noto Sans KR',sans-serif" font-size="28" font-weight="600" fill="#e4eeff">XGEN 서버</text>
</svg>
