<svg viewBox="0 0 1200 675" xmlns="http://www.w3.org/2000/svg" role="img" aria-label="줄만 그어진 문서가 항목이 정해진 업무 데이터로 옮겨지는 모습">
  <defs>
    <linearGradient id="bg" x1="0" y1="0" x2="1" y2="1"><stop offset="0" stop-color="#fbfcfd"/><stop offset="1" stop-color="#e8eaef"/></linearGradient>
    <linearGradient id="brand" x1="0" y1="0" x2="1" y2="1"><stop offset="0" stop-color="#8b5cf6"/><stop offset="1" stop-color="#a78bfa"/></linearGradient>
    <radialGradient id="glow" cx="50%" cy="50%" r="50%"><stop offset="0" stop-color="#a78bfa" stop-opacity="0.10"/><stop offset="1" stop-color="#a78bfa" stop-opacity="0"/></radialGradient>
  </defs>
  <rect width="1200" height="675" fill="url(#bg)"/>
  <circle cx="600" cy="486" r="330" fill="url(#glow)"/>

  <text x="600" y="170" text-anchor="middle" font-family="Pretendard,'Pretendard Variable','Malgun Gothic','Apple SD Gothic Neo','Noto Sans KR',sans-serif" font-size="92" font-weight="800" fill="#111827">읽는 것에서</text>
  <text x="600" y="276" text-anchor="middle" font-family="Pretendard,'Pretendard Variable','Malgun Gothic','Apple SD Gothic Neo','Noto Sans KR',sans-serif" font-size="92" font-weight="800" fill="#7c3aed">실행하는 것까지</text>
  <rect x="383" y="340" width="190" height="250" rx="18" fill="#ffffff" stroke="#e3e6eb" stroke-width="2"/>
  <g fill="#d3d7de">
    <rect x="413" y="378" width="112" height="12" rx="6"/>
    <rect x="413" y="420" width="130" height="12" rx="6"/>
    <rect x="413" y="462" width="96" height="12" rx="6"/>
    <rect x="413" y="504" width="130" height="12" rx="6"/>
    <rect x="413" y="546" width="80" height="12" rx="6"/>
  </g>
  <rect x="643" y="340" width="174" height="250" rx="18" fill="url(#brand)"/>
  <g>
    <rect x="671" y="384" width="46" height="14" rx="7" fill="#ffffff" opacity="0.95"/>
    <rect x="729" y="384" width="60" height="14" rx="7" fill="#ffffff" opacity="0.45"/>
    <rect x="671" y="436" width="46" height="14" rx="7" fill="#ffffff" opacity="0.95"/>
    <rect x="729" y="436" width="48" height="14" rx="7" fill="#ffffff" opacity="0.45"/>
    <rect x="671" y="488" width="46" height="14" rx="7" fill="#ffffff" opacity="0.95"/>
    <rect x="729" y="488" width="60" height="14" rx="7" fill="#ffffff" opacity="0.45"/>
    <rect x="671" y="540" width="46" height="14" rx="7" fill="#ffffff" opacity="0.95"/>
    <rect x="729" y="540" width="40" height="14" rx="7" fill="#ffffff" opacity="0.45"/>
  </g>
  <g stroke="#7c3aed" stroke-width="5" stroke-linecap="round" fill="none"><path d="M589 465 h30"/><path d="M611 453 l14 12 -14 12"/></g>
  <text x="600" y="642" text-anchor="middle" font-family="Pretendard,'Pretendard Variable','Malgun Gothic','Apple SD Gothic Neo','Noto Sans KR',sans-serif" font-size="28" font-weight="700" fill="#7c3aed">판독 · 구조화 · 적재</text>
</svg>
